solid 1.0_spacer
facet normal 0.1305261922200603 -0.9914448613738093 0.0
  outer loop
    vertex 1.0036692913385834 1.262992125984253 0.2800000000000007
    vertex 0.9519054823180793 1.2561772912420661 0.2800000000000007
    vertex 1.0036692913385834 1.262992125984253 4.440892098500626e-16
  endloop
endfacet
facet normal 0.1305261922200603 -0.9914448613738093 0.0
  outer loop
    vertex 0.9519054823180793 1.2561772912420661 4.440892098500626e-16
    vertex 1.0036692913385834 1.262992125984253 4.440892098500626e-16
    vertex 0.9519054823180793 1.2561772912420661 0.2800000000000007
  endloop
endfacet
facet normal 0.0 0.0 1.0
  outer loop
    vertex 0.8036692913385823 0.35433070866141847 0.28
    vertex 0.8104841260807687 0.4060945176819235 0.28
    vertex 0.8036692913385832 1.0629921259842519 0.2800000000000007
  endloop
endfacet
facet normal 0.0 0.0 1.0
  outer loop
    vertex 0.8104841260807696 1.0112283169637468 0.2800000000000007
    vertex 0.8036692913385832 1.0629921259842519 0.2800000000000007
    vertex 0.8104841260807687 0.4060945176819235 0.28
  endloop
endfacet
facet normal 0.0 0.0 1.0
  outer loop
    vertex 0.8304642105816948 0.4543307086614181 0.28
    vertex 0.8104841260807696 1.0112283169637468 0.2800000000000007
    vertex 0.8104841260807687 0.4060945176819235 0.28
  endloop
endfacet
facet normal 0.0 0.0 1.0
  outer loop
    vertex 0.8304642105816953 0.9629921259842522 0.2800000000000007
    vertex 0.8104841260807696 1.0112283169637468 0.2800000000000007
    vertex 0.8304642105816948 0.4543307086614181 0.28
  endloop
endfacet
facet normal 0.0 0.0 1.0
  outer loop
    vertex 0.8622479351012728 0.4957520648987277 0.28
    vertex 0.8304642105816953 0.9629921259842522 0.2800000000000007
    vertex 0.8304642105816948 0.4543307086614181 0.28
  endloop
endfacet
facet normal 0.0 0.0 1.0
  outer loop
    vertex 0.8622479351012737 0.9215707697469426 0.2800000000000007
    vertex 0.8304642105816953 0.9629921259842522 0.2800000000000007
    vertex 0.8622479351012728 0.4957520648987277 0.28
  endloop
endfacet
facet normal 0.0 0.0 1.0
  outer loop
    vertex 0.9036692913385824 0.527535789418307 0.28
    vertex 0.8622479351012737 0.9215707697469426 0.2800000000000007
    vertex 0.8622479351012728 0.4957520648987277 0.28
  endloop
endfacet
facet normal 0.0 0.0 1.0
  outer loop
    vertex 0.9036692913385833 0.8897870452273633 0.2800000000000007
    vertex 0.8622479351012737 0.9215707697469426 0.2800000000000007
    vertex 0.9036692913385824 0.527535789418307 0.28
  endloop
endfacet
facet normal 0.0 0.0 1.0
  outer loop
    vertex 0.9519054823180784 0.5475158739192327 0.28
    vertex 0.9036692913385833 0.8897870452273633 0.2800000000000007
    vertex 0.9036692913385824 0.527535789418307 0.28
  endloop
endfacet
facet normal 0.0 0.0 1.0
  outer loop
    vertex 0.9519054823180793 0.8698069607264376 0.2800000000000007
    vertex 0.9036692913385833 0.8897870452273633 0.2800000000000007
    vertex 0.9519054823180784 0.5475158739192327 0.28
  endloop
endfacet
facet normal 0.0 0.0 1.0
  outer loop
    vertex 1.0036692913385825 0.5543307086614195 0.28
    vertex 0.9519054823180793 0.8698069607264376 0.2800000000000007
    vertex 0.9519054823180784 0.5475158739192327 0.28
  endloop
endfacet
facet normal 0.0 0.0 1.0
  outer loop
    vertex 1.0036692913385834 0.8629921259842508 0.2800000000000007
    vertex 0.9519054823180793 0.8698069607264376 0.2800000000000007
    vertex 1.0036692913385825 0.5543307086614195 0.28
  endloop
endfacet
facet normal 0.0 0.0 1.0
  outer loop
    vertex 1.0554331003590867 0.5475158739192327 0.28
    vertex 1.0036692913385834 0.8629921259842508 0.2800000000000007
    vertex 1.0036692913385825 0.5543307086614195 0.28
  endloop
endfacet
facet normal 0.0 0.0 1.0
  outer loop
    vertex 1.0554331003590876 0.8698069607264376 0.2800000000000007
    vertex 1.0036692913385834 0.8629921259842508 0.2800000000000007
    vertex 1.0554331003590867 0.5475158739192327 0.28
  endloop
endfacet
facet normal 0.0 0.0 1.0
  outer loop
    vertex 1.1036692913385826 0.527535789418307 0.28
    vertex 1.0554331003590876 0.8698069607264376 0.2800000000000007
    vertex 1.0554331003590867 0.5475158739192327 0.28
  endloop
endfacet
facet normal 0.0 0.0 1.0
  outer loop
    vertex 1.1036692913385835 0.8897870452273633 0.2800000000000007
    vertex 1.0554331003590876 0.8698069607264376 0.2800000000000007
    vertex 1.1036692913385826 0.527535789418307 0.28
  endloop
endfacet
facet normal 0.0 0.0 1.0
  outer loop
    vertex 1.1450906475758922 0.4957520648987277 0.28
    vertex 1.1036692913385835 0.8897870452273633 0.2800000000000007
    vertex 1.1036692913385826 0.527535789418307 0.28
  endloop
endfacet
facet normal 0.0 0.0 1.0
  outer loop
    vertex 1.145090647575893 0.9215707697469426 0.2800000000000007
    vertex 1.1036692913385835 0.8897870452273633 0.2800000000000007
    vertex 1.1450906475758922 0.4957520648987277 0.28
  endloop
endfacet
facet normal 0.0 0.0 1.0
  outer loop
    vertex 1.1768743720954706 0.4543307086614181 0.28
    vertex 1.145090647575893 0.9215707697469426 0.2800000000000007
    vertex 1.1450906475758922 0.4957520648987277 0.28
  endloop
endfacet
facet normal 0.0 0.0 1.0
  outer loop
    vertex 1.176874372095471 0.9629921259842522 0.2800000000000007
    vertex 1.145090647575893 0.9215707697469426 0.2800000000000007
    vertex 1.1768743720954706 0.4543307086614181 0.28
  endloop
endfacet
facet normal 0.0 0.0 1.0
  outer loop
    vertex 1.1968544565963963 0.40609451768192173 0.28
    vertex 1.176874372095471 0.9629921259842522 0.2800000000000007
    vertex 1.1768743720954706 0.4543307086614181 0.28
  endloop
endfacet
facet normal 0.0 0.0 1.0
  outer loop
    vertex 1.1968544565963972 1.0112283169637468 0.2800000000000007
    vertex 1.176874372095471 0.9629921259842522 0.2800000000000007
    vertex 1.1968544565963963 0.40609451768192173 0.28
  endloop
endfacet
facet normal 0.0 0.0 1.0
  outer loop
    vertex 1.2036692913385827 0.35433070866141847 0.28
    vertex 1.1968544565963972 1.0112283169637468 0.2800000000000007
    vertex 1.1968544565963963 0.40609451768192173 0.28
  endloop
endfacet
facet normal 0.0 0.0 1.0
  outer loop
    vertex 1.2036692913385836 1.0629921259842519 0.2800000000000007
    vertex 1.1968544565963972 1.0112283169637468 0.2800000000000007
    vertex 1.2036692913385827 0.35433070866141847 0.28
  endloop
endfacet
facet normal 0.0 0.0 1.0
  outer loop
    vertex 0.0 0.0 0.28000000000000114
    vertex 0.8304642105816957 1.1629921259842515 0.2800000000000007
    vertex 0.0 1.4173228346456686 0.28000000000000114
  endloop
endfacet
facet normal 0.0 0.0 1.0
  outer loop
    vertex 0.8622479351012737 1.204413482221561 0.2800000000000007
    vertex 0.0 1.4173228346456686 0.28000000000000114
    vertex 0.8304642105816957 1.1629921259842515 0.2800000000000007
  endloop
endfacet
facet normal 0.0 0.0 1.0
  outer loop
    vertex 0.9036692913385833 1.2361972067411404 0.2800000000000007
    vertex 0.0 1.4173228346456686 0.28000000000000114
    vertex 0.8622479351012737 1.204413482221561 0.2800000000000007
  endloop
endfacet
facet normal 0.0 0.0 1.0
  outer loop
    vertex 0.9519054823180793 1.2561772912420661 0.2800000000000007
    vertex 0.0 1.4173228346456686 0.28000000000000114
    vertex 0.9036692913385833 1.2361972067411404 0.2800000000000007
  endloop
endfacet
facet normal 0.0 0.0 1.0
  outer loop
    vertex 1.3579999999999997 1.4173228346456686 0.28000000000000114
    vertex 0.0 1.4173228346456686 0.28000000000000114
    vertex 0.9519054823180793 1.2561772912420661 0.2800000000000007
  endloop
endfacet
facet normal 0.0 0.0 1.0
  outer loop
    vertex 0.8104841260807696 1.114755935004757 0.2800000000000007
    vertex 0.8304642105816957 1.1629921259842515 0.2800000000000007
    vertex 0.0 0.0 0.28000000000000114
  endloop
endfacet
facet normal 0.0 0.0 1.0
  outer loop
    vertex 0.8036692913385832 1.0629921259842519 0.2800000000000007
    vertex 0.8104841260807696 1.114755935004757 0.2800000000000007
    vertex 0.0 0.0 0.28000000000000114
  endloop
endfacet
facet normal 0.0 0.0 1.0
  outer loop
    vertex 0.8036692913385823 0.35433070866141847 0.28
    vertex 0.8036692913385832 1.0629921259842519 0.2800000000000007
    vertex 0.0 0.0 0.28000000000000114
  endloop
endfacet
facet normal 0.0 0.0 1.0
  outer loop
    vertex 1.0036692913385834 1.262992125984253 0.2800000000000007
    vertex 1.3579999999999997 1.4173228346456686 0.28000000000000114
    vertex 0.9519054823180793 1.2561772912420661 0.2800000000000007
  endloop
endfacet
facet normal 0.0 0.0 1.0
  outer loop
    vertex 1.0554331003590876 1.2561772912420661 0.2800000000000007
    vertex 1.3579999999999997 1.4173228346456686 0.28000000000000114
    vertex 1.0036692913385834 1.262992125984253 0.2800000000000007
  endloop
endfacet
facet normal 0.0 0.0 1.0
  outer loop
    vertex 1.1036692913385835 1.2361972067411404 0.2800000000000007
    vertex 1.3579999999999997 1.4173228346456686 0.28000000000000114
    vertex 1.0554331003590876 1.2561772912420661 0.2800000000000007
  endloop
endfacet
facet normal 0.0 0.0 1.0
  outer loop
    vertex 1.145090647575893 1.204413482221561 0.2800000000000007
    vertex 1.3579999999999997 1.4173228346456686 0.28000000000000114
    vertex 1.1036692913385835 1.2361972067411404 0.2800000000000007
  endloop
endfacet
facet normal 0.0 0.0 1.0
  outer loop
    vertex 1.1768743720954715 1.1629921259842515 0.2800000000000007
    vertex 1.3579999999999997 1.4173228346456686 0.28000000000000114
    vertex 1.145090647575893 1.204413482221561 0.2800000000000007
  endloop
endfacet
facet normal 0.0 0.0 1.0
  outer loop
    vertex 1.1968544565963972 1.1147559350047551 0.2800000000000007
    vertex 1.3579999999999997 1.4173228346456686 0.28000000000000114
    vertex 1.1768743720954715 1.1629921259842515 0.2800000000000007
  endloop
endfacet
facet normal 0.0 0.0 1.0
  outer loop
    vertex 1.2036692913385836 1.0629921259842519 0.2800000000000007
    vertex 1.3579999999999997 1.4173228346456686 0.28000000000000114
    vertex 1.1968544565963972 1.1147559350047551 0.2800000000000007
  endloop
endfacet
facet normal 0.0 0.0 1.0
  outer loop
    vertex 1.3579999999999997 0.0 0.28000000000000114
    vertex 0.9519054823180784 0.1611455434036042 0.28
    vertex 0.0 0.0 0.28000000000000114
  endloop
endfacet
facet normal 0.0 0.0 1.0
  outer loop
    vertex 0.9036692913385824 0.1811256279045299 0.28
    vertex 0.0 0.0 0.28000000000000114
    vertex 0.9519054823180784 0.1611455434036042 0.28
  endloop
endfacet
facet normal 0.0 0.0 1.0
  outer loop
    vertex 0.8622479351012728 0.21290935242410924 0.28
    vertex 0.0 0.0 0.28000000000000114
    vertex 0.9036692913385824 0.1811256279045299 0.28
  endloop
endfacet
facet normal 0.0 0.0 1.0
  outer loop
    vertex 0.8304642105816944 0.2543307086614188 0.28
    vertex 0.0 0.0 0.28000000000000114
    vertex 0.8622479351012728 0.21290935242410924 0.28
  endloop
endfacet
facet normal 0.0 0.0 1.0
  outer loop
    vertex 0.8104841260807687 0.30256689964091343 0.28
    vertex 0.0 0.0 0.28000000000000114
    vertex 0.8304642105816944 0.2543307086614188 0.28
  endloop
endfacet
facet normal 0.0 0.0 1.0
  outer loop
    vertex 0.8036692913385823 0.35433070866141847 0.28
    vertex 0.0 0.0 0.28000000000000114
    vertex 0.8104841260807687 0.30256689964091343 0.28
  endloop
endfacet
facet normal 0.0 0.0 1.0
  outer loop
    vertex 1.0036692913385825 0.1543307086614174 0.28
    vertex 0.9519054823180784 0.1611455434036042 0.28
    vertex 1.3579999999999997 0.0 0.28000000000000114
  endloop
endfacet
facet normal 0.0 0.0 1.0
  outer loop
    vertex 1.0554331003590867 0.1611455434036042 0.28
    vertex 1.0036692913385825 0.1543307086614174 0.28
    vertex 1.3579999999999997 0.0 0.28000000000000114
  endloop
endfacet
facet normal 0.0 0.0 1.0
  outer loop
    vertex 1.1036692913385826 0.1811256279045299 0.28
    vertex 1.0554331003590867 0.1611455434036042 0.28
    vertex 1.3579999999999997 0.0 0.28000000000000114
  endloop
endfacet
facet normal 0.0 0.0 1.0
  outer loop
    vertex 1.1450906475758922 0.21290935242410924 0.28
    vertex 1.1036692913385826 0.1811256279045299 0.28
    vertex 1.3579999999999997 0.0 0.28000000000000114
  endloop
endfacet
facet normal 0.0 0.0 1.0
  outer loop
    vertex 1.1768743720954702 0.2543307086614188 0.28
    vertex 1.1450906475758922 0.21290935242410924 0.28
    vertex 1.3579999999999997 0.0 0.28000000000000114
  endloop
endfacet
facet normal 0.0 0.0 1.0
  outer loop
    vertex 1.1968544565963963 0.30256689964091343 0.28
    vertex 1.1768743720954702 0.2543307086614188 0.28
    vertex 1.3579999999999997 0.0 0.28000000000000114
  endloop
endfacet
facet normal 0.0 0.0 1.0
  outer loop
    vertex 1.2036692913385827 0.35433070866141847 0.28
    vertex 1.1968544565963963 0.30256689964091343 0.28
    vertex 1.3579999999999997 0.0 0.28000000000000114
  endloop
endfacet
facet normal 0.0 0.0 1.0
  outer loop
    vertex 1.2036692913385836 1.0629921259842519 0.2800000000000007
    vertex 1.2036692913385827 0.35433070866141847 0.28
    vertex 1.3579999999999997 0.0 0.28000000000000114
  endloop
endfacet
facet normal 0.0 0.0 1.0
  outer loop
    vertex 1.3579999999999997 1.4173228346456686 0.28000000000000114
    vertex 1.2036692913385836 1.0629921259842519 0.2800000000000007
    vertex 1.3579999999999997 0.0 0.28000000000000114
  endloop
endfacet
facet normal -0.3826834323650854 0.9238795325112886 0.0
  outer loop
    vertex 1.0554331003590876 0.8698069607264376 0.2800000000000007
    vertex 1.1036692913385835 0.8897870452273633 0.2800000000000007
    vertex 1.0554331003590876 0.8698069607264376 4.440892098500626e-16
  endloop
endfacet
facet normal -0.3826834323650854 0.9238795325112886 0.0
  outer loop
    vertex 1.1036692913385835 0.8897870452273633 4.440892098500626e-16
    vertex 1.0554331003590876 0.8698069607264376 4.440892098500626e-16
    vertex 1.1036692913385835 0.8897870452273633 0.2800000000000007
  endloop
endfacet
facet normal 0.923879532511285 0.3826834323650945 0.0
  outer loop
    vertex 0.8304642105816944 0.2543307086614188 0.28
    vertex 0.8304642105816944 0.2543307086614188 0.0
    vertex 0.8104841260807687 0.30256689964091343 0.28
  endloop
endfacet
facet normal 0.923879532511285 0.3826834323650945 0.0
  outer loop
    vertex 0.8104841260807687 0.30256689964091343 0.0
    vertex 0.8104841260807687 0.30256689964091343 0.28
    vertex 0.8304642105816944 0.2543307086614188 0.0
  endloop
endfacet
facet normal 0.7933533402912337 0.6087614290087228 0.0
  outer loop
    vertex 0.8622479351012728 0.21290935242410924 0.28
    vertex 0.8622479351012728 0.21290935242410924 0.0
    vertex 0.8304642105816944 0.2543307086614188 0.28
  endloop
endfacet
facet normal 0.7933533402912337 0.6087614290087228 0.0
  outer loop
    vertex 0.8304642105816944 0.2543307086614188 0.0
    vertex 0.8304642105816944 0.2543307086614188 0.28
    vertex 0.8622479351012728 0.21290935242410924 0.0
  endloop
endfacet
facet normal -0.7933533402912337 -0.6087614290087228 -0.0
  outer loop
    vertex 1.1768743720954715 1.1629921259842515 4.440892098500626e-16
    vertex 1.1768743720954715 1.1629921259842515 0.2800000000000007
    vertex 1.145090647575893 1.204413482221561 4.440892098500626e-16
  endloop
endfacet
facet normal -0.7933533402912337 -0.6087614290087228 -0.0
  outer loop
    vertex 1.145090647575893 1.204413482221561 0.2800000000000007
    vertex 1.145090647575893 1.204413482221561 4.440892098500626e-16
    vertex 1.1768743720954715 1.1629921259842515 0.2800000000000007
  endloop
endfacet
facet normal -0.1305261922200603 0.9914448613738093 0.0
  outer loop
    vertex 1.0036692913385825 0.1543307086614174 0.28
    vertex 1.0554331003590867 0.1611455434036042 0.28
    vertex 1.0036692913385825 0.1543307086614174 0.0
  endloop
endfacet
facet normal -0.1305261922200603 0.9914448613738093 0.0
  outer loop
    vertex 1.0554331003590867 0.1611455434036042 0.0
    vertex 1.0036692913385825 0.1543307086614174 0.0
    vertex 1.0554331003590867 0.1611455434036042 0.28
  endloop
endfacet
facet normal 0.1305261922200603 0.9914448613738093 0.0
  outer loop
    vertex 0.9519054823180784 0.1611455434036042 0.28
    vertex 1.0036692913385825 0.1543307086614174 0.28
    vertex 0.9519054823180784 0.1611455434036042 0.0
  endloop
endfacet
facet normal 0.1305261922200603 0.9914448613738093 0.0
  outer loop
    vertex 1.0036692913385825 0.1543307086614174 0.0
    vertex 0.9519054823180784 0.1611455434036042 0.0
    vertex 1.0036692913385825 0.1543307086614174 0.28
  endloop
endfacet
facet normal -0.9914448613738102 -0.13052619222005413 -0.0
  outer loop
    vertex 1.2036692913385836 1.0629921259842519 4.440892098500626e-16
    vertex 1.2036692913385836 1.0629921259842519 0.2800000000000007
    vertex 1.1968544565963972 1.1147559350047551 4.440892098500626e-16
  endloop
endfacet
facet normal -0.9914448613738102 -0.13052619222005413 -0.0
  outer loop
    vertex 1.1968544565963972 1.1147559350047551 0.2800000000000007
    vertex 1.1968544565963972 1.1147559350047551 4.440892098500626e-16
    vertex 1.2036692913385836 1.0629921259842519 0.2800000000000007
  endloop
endfacet
facet normal 0.0 0.0 -1.0
  outer loop
    vertex 0.0 1.4173228346456686 8.881784197001252e-16
    vertex 0.8304642105816944 0.2543307086614188 0.0
    vertex 0.0 0.0 8.881784197001252e-16
  endloop
endfacet
facet normal 0.0 0.0 -1.0
  outer loop
    vertex 0.8622479351012728 0.21290935242410924 0.0
    vertex 0.0 0.0 8.881784197001252e-16
    vertex 0.8304642105816944 0.2543307086614188 0.0
  endloop
endfacet
facet normal 0.0 0.0 -1.0
  outer loop
    vertex 0.9036692913385824 0.1811256279045299 0.0
    vertex 0.0 0.0 8.881784197001252e-16
    vertex 0.8622479351012728 0.21290935242410924 0.0
  endloop
endfacet
facet normal 0.0 0.0 -1.0
  outer loop
    vertex 0.9519054823180784 0.1611455434036042 0.0
    vertex 0.0 0.0 8.881784197001252e-16
    vertex 0.9036692913385824 0.1811256279045299 0.0
  endloop
endfacet
facet normal 0.0 0.0 -1.0
  outer loop
    vertex 1.3579999999999997 0.0 8.881784197001252e-16
    vertex 0.0 0.0 8.881784197001252e-16
    vertex 0.9519054823180784 0.1611455434036042 0.0
  endloop
endfacet
facet normal 0.0 0.0 -1.0
  outer loop
    vertex 0.8104841260807687 0.30256689964091343 0.0
    vertex 0.8304642105816944 0.2543307086614188 0.0
    vertex 0.0 1.4173228346456686 8.881784197001252e-16
  endloop
endfacet
facet normal 0.0 0.0 -1.0
  outer loop
    vertex 0.8036692913385823 0.35433070866141847 0.0
    vertex 0.8104841260807687 0.30256689964091343 0.0
    vertex 0.0 1.4173228346456686 8.881784197001252e-16
  endloop
endfacet
facet normal 0.0 0.0 -1.0
  outer loop
    vertex 1.0036692913385825 0.1543307086614174 0.0
    vertex 1.3579999999999997 0.0 8.881784197001252e-16
    vertex 0.9519054823180784 0.1611455434036042 0.0
  endloop
endfacet
facet normal 0.0 0.0 -1.0
  outer loop
    vertex 1.0554331003590867 0.1611455434036042 0.0
    vertex 1.3579999999999997 0.0 8.881784197001252e-16
    vertex 1.0036692913385825 0.1543307086614174 0.0
  endloop
endfacet
facet normal 0.0 0.0 -1.0
  outer loop
    vertex 1.1036692913385826 0.1811256279045299 0.0
    vertex 1.3579999999999997 0.0 8.881784197001252e-16
    vertex 1.0554331003590867 0.1611455434036042 0.0
  endloop
endfacet
facet normal 0.0 0.0 -1.0
  outer loop
    vertex 1.1450906475758922 0.21290935242410924 0.0
    vertex 1.3579999999999997 0.0 8.881784197001252e-16
    vertex 1.1036692913385826 0.1811256279045299 0.0
  endloop
endfacet
facet normal 0.0 0.0 -1.0
  outer loop
    vertex 1.1768743720954702 0.2543307086614188 0.0
    vertex 1.3579999999999997 0.0 8.881784197001252e-16
    vertex 1.1450906475758922 0.21290935242410924 0.0
  endloop
endfacet
facet normal 0.0 0.0 -1.0
  outer loop
    vertex 1.1968544565963963 0.30256689964091343 0.0
    vertex 1.3579999999999997 0.0 8.881784197001252e-16
    vertex 1.1768743720954702 0.2543307086614188 0.0
  endloop
endfacet
facet normal 0.0 0.0 -1.0
  outer loop
    vertex 1.2036692913385827 0.35433070866141847 0.0
    vertex 1.3579999999999997 0.0 8.881784197001252e-16
    vertex 1.1968544565963963 0.30256689964091343 0.0
  endloop
endfacet
facet normal 0.0 0.0 -1.0
  outer loop
    vertex 1.2036692913385836 1.0629921259842519 4.440892098500626e-16
    vertex 1.3579999999999997 0.0 8.881784197001252e-16
    vertex 1.2036692913385827 0.35433070866141847 0.0
  endloop
endfacet
facet normal 0.0 0.0 -1.0
  outer loop
    vertex 1.3579999999999997 1.4173228346456686 8.881784197001252e-16
    vertex 0.9519054823180793 1.2561772912420661 4.440892098500626e-16
    vertex 0.0 1.4173228346456686 8.881784197001252e-16
  endloop
endfacet
facet normal 0.0 0.0 -1.0
  outer loop
    vertex 0.9036692913385833 1.2361972067411404 4.440892098500626e-16
    vertex 0.0 1.4173228346456686 8.881784197001252e-16
    vertex 0.9519054823180793 1.2561772912420661 4.440892098500626e-16
  endloop
endfacet
facet normal 0.0 0.0 -1.0
  outer loop
    vertex 0.8622479351012737 1.204413482221561 4.440892098500626e-16
    vertex 0.0 1.4173228346456686 8.881784197001252e-16
    vertex 0.9036692913385833 1.2361972067411404 4.440892098500626e-16
  endloop
endfacet
facet normal 0.0 0.0 -1.0
  outer loop
    vertex 0.8304642105816957 1.1629921259842515 4.440892098500626e-16
    vertex 0.0 1.4173228346456686 8.881784197001252e-16
    vertex 0.8622479351012737 1.204413482221561 4.440892098500626e-16
  endloop
endfacet
facet normal 0.0 0.0 -1.0
  outer loop
    vertex 0.8104841260807696 1.114755935004757 4.440892098500626e-16
    vertex 0.0 1.4173228346456686 8.881784197001252e-16
    vertex 0.8304642105816957 1.1629921259842515 4.440892098500626e-16
  endloop
endfacet
facet normal 0.0 0.0 -1.0
  outer loop
    vertex 0.8036692913385832 1.0629921259842519 4.440892098500626e-16
    vertex 0.0 1.4173228346456686 8.881784197001252e-16
    vertex 0.8104841260807696 1.114755935004757 4.440892098500626e-16
  endloop
endfacet
facet normal 0.0 0.0 -1.0
  outer loop
    vertex 0.8036692913385823 0.35433070866141847 0.0
    vertex 0.0 1.4173228346456686 8.881784197001252e-16
    vertex 0.8036692913385832 1.0629921259842519 4.440892098500626e-16
  endloop
endfacet
facet normal 0.0 0.0 -1.0
  outer loop
    vertex 1.0036692913385834 1.262992125984253 4.440892098500626e-16
    vertex 0.9519054823180793 1.2561772912420661 4.440892098500626e-16
    vertex 1.3579999999999997 1.4173228346456686 8.881784197001252e-16
  endloop
endfacet
facet normal 0.0 0.0 -1.0
  outer loop
    vertex 1.0554331003590876 1.2561772912420661 4.440892098500626e-16
    vertex 1.0036692913385834 1.262992125984253 4.440892098500626e-16
    vertex 1.3579999999999997 1.4173228346456686 8.881784197001252e-16
  endloop
endfacet
facet normal 0.0 0.0 -1.0
  outer loop
    vertex 1.1036692913385835 1.2361972067411404 4.440892098500626e-16
    vertex 1.0554331003590876 1.2561772912420661 4.440892098500626e-16
    vertex 1.3579999999999997 1.4173228346456686 8.881784197001252e-16
  endloop
endfacet
facet normal 0.0 0.0 -1.0
  outer loop
    vertex 1.145090647575893 1.204413482221561 4.440892098500626e-16
    vertex 1.1036692913385835 1.2361972067411404 4.440892098500626e-16
    vertex 1.3579999999999997 1.4173228346456686 8.881784197001252e-16
  endloop
endfacet
facet normal 0.0 0.0 -1.0
  outer loop
    vertex 1.1768743720954715 1.1629921259842515 4.440892098500626e-16
    vertex 1.145090647575893 1.204413482221561 4.440892098500626e-16
    vertex 1.3579999999999997 1.4173228346456686 8.881784197001252e-16
  endloop
endfacet
facet normal 0.0 0.0 -1.0
  outer loop
    vertex 1.1968544565963972 1.1147559350047551 4.440892098500626e-16
    vertex 1.1768743720954715 1.1629921259842515 4.440892098500626e-16
    vertex 1.3579999999999997 1.4173228346456686 8.881784197001252e-16
  endloop
endfacet
facet normal 0.0 0.0 -1.0
  outer loop
    vertex 1.2036692913385836 1.0629921259842519 4.440892098500626e-16
    vertex 1.1968544565963972 1.1147559350047551 4.440892098500626e-16
    vertex 1.3579999999999997 1.4173228346456686 8.881784197001252e-16
  endloop
endfacet
facet normal 0.0 0.0 -1.0
  outer loop
    vertex 1.3579999999999997 0.0 8.881784197001252e-16
    vertex 1.2036692913385836 1.0629921259842519 4.440892098500626e-16
    vertex 1.3579999999999997 1.4173228346456686 8.881784197001252e-16
  endloop
endfacet
facet normal 0.0 0.0 -1.0
  outer loop
    vertex 0.8036692913385823 0.35433070866141847 0.0
    vertex 0.8036692913385832 1.0629921259842519 4.440892098500626e-16
    vertex 0.8104841260807687 0.4060945176819235 0.0
  endloop
endfacet
facet normal 0.0 0.0 -1.0
  outer loop
    vertex 0.8104841260807696 1.0112283169637468 4.440892098500626e-16
    vertex 0.8104841260807687 0.4060945176819235 0.0
    vertex 0.8036692913385832 1.0629921259842519 4.440892098500626e-16
  endloop
endfacet
facet normal 0.0 0.0 -1.0
  outer loop
    vertex 0.8304642105816948 0.4543307086614181 0.0
    vertex 0.8104841260807687 0.4060945176819235 0.0
    vertex 0.8104841260807696 1.0112283169637468 4.440892098500626e-16
  endloop
endfacet
facet normal 0.0 0.0 -1.0
  outer loop
    vertex 0.8304642105816953 0.9629921259842522 4.440892098500626e-16
    vertex 0.8304642105816948 0.4543307086614181 0.0
    vertex 0.8104841260807696 1.0112283169637468 4.440892098500626e-16
  endloop
endfacet
facet normal 0.0 0.0 -1.0
  outer loop
    vertex 0.8622479351012728 0.4957520648987277 0.0
    vertex 0.8304642105816948 0.4543307086614181 0.0
    vertex 0.8304642105816953 0.9629921259842522 4.440892098500626e-16
  endloop
endfacet
facet normal 0.0 0.0 -1.0
  outer loop
    vertex 0.8622479351012737 0.9215707697469426 4.440892098500626e-16
    vertex 0.8622479351012728 0.4957520648987277 0.0
    vertex 0.8304642105816953 0.9629921259842522 4.440892098500626e-16
  endloop
endfacet
facet normal 0.0 0.0 -1.0
  outer loop
    vertex 0.9036692913385824 0.527535789418307 0.0
    vertex 0.8622479351012728 0.4957520648987277 0.0
    vertex 0.8622479351012737 0.9215707697469426 4.440892098500626e-16
  endloop
endfacet
facet normal 0.0 0.0 -1.0
  outer loop
    vertex 0.9036692913385833 0.8897870452273633 4.440892098500626e-16
    vertex 0.9036692913385824 0.527535789418307 0.0
    vertex 0.8622479351012737 0.9215707697469426 4.440892098500626e-16
  endloop
endfacet
facet normal 0.0 0.0 -1.0
  outer loop
    vertex 0.9519054823180784 0.5475158739192327 0.0
    vertex 0.9036692913385824 0.527535789418307 0.0
    vertex 0.9036692913385833 0.8897870452273633 4.440892098500626e-16
  endloop
endfacet
facet normal 0.0 0.0 -1.0
  outer loop
    vertex 0.9519054823180793 0.8698069607264376 4.440892098500626e-16
    vertex 0.9519054823180784 0.5475158739192327 0.0
    vertex 0.9036692913385833 0.8897870452273633 4.440892098500626e-16
  endloop
endfacet
facet normal 0.0 0.0 -1.0
  outer loop
    vertex 1.0036692913385825 0.5543307086614195 0.0
    vertex 0.9519054823180784 0.5475158739192327 0.0
    vertex 0.9519054823180793 0.8698069607264376 4.440892098500626e-16
  endloop
endfacet
facet normal 0.0 0.0 -1.0
  outer loop
    vertex 1.0036692913385834 0.8629921259842508 4.440892098500626e-16
    vertex 1.0036692913385825 0.5543307086614195 0.0
    vertex 0.9519054823180793 0.8698069607264376 4.440892098500626e-16
  endloop
endfacet
facet normal 0.0 0.0 -1.0
  outer loop
    vertex 1.0554331003590867 0.5475158739192327 0.0
    vertex 1.0036692913385825 0.5543307086614195 0.0
    vertex 1.0036692913385834 0.8629921259842508 4.440892098500626e-16
  endloop
endfacet
facet normal 0.0 0.0 -1.0
  outer loop
    vertex 1.0554331003590876 0.8698069607264376 4.440892098500626e-16
    vertex 1.0554331003590867 0.5475158739192327 0.0
    vertex 1.0036692913385834 0.8629921259842508 4.440892098500626e-16
  endloop
endfacet
facet normal 0.0 0.0 -1.0
  outer loop
    vertex 1.1036692913385826 0.527535789418307 0.0
    vertex 1.0554331003590867 0.5475158739192327 0.0
    vertex 1.0554331003590876 0.8698069607264376 4.440892098500626e-16
  endloop
endfacet
facet normal 0.0 0.0 -1.0
  outer loop
    vertex 1.1036692913385835 0.8897870452273633 4.440892098500626e-16
    vertex 1.1036692913385826 0.527535789418307 0.0
    vertex 1.0554331003590876 0.8698069607264376 4.440892098500626e-16
  endloop
endfacet
facet normal 0.0 0.0 -1.0
  outer loop
    vertex 1.1450906475758922 0.4957520648987277 0.0
    vertex 1.1036692913385826 0.527535789418307 0.0
    vertex 1.1036692913385835 0.8897870452273633 4.440892098500626e-16
  endloop
endfacet
facet normal 0.0 0.0 -1.0
  outer loop
    vertex 1.145090647575893 0.9215707697469426 4.440892098500626e-16
    vertex 1.1450906475758922 0.4957520648987277 0.0
    vertex 1.1036692913385835 0.8897870452273633 4.440892098500626e-16
  endloop
endfacet
facet normal 0.0 0.0 -1.0
  outer loop
    vertex 1.1768743720954706 0.4543307086614181 0.0
    vertex 1.1450906475758922 0.4957520648987277 0.0
    vertex 1.145090647575893 0.9215707697469426 4.440892098500626e-16
  endloop
endfacet
facet normal 0.0 0.0 -1.0
  outer loop
    vertex 1.176874372095471 0.9629921259842522 4.440892098500626e-16
    vertex 1.1768743720954706 0.4543307086614181 0.0
    vertex 1.145090647575893 0.9215707697469426 4.440892098500626e-16
  endloop
endfacet
facet normal 0.0 0.0 -1.0
  outer loop
    vertex 1.1968544565963963 0.40609451768192173 0.0
    vertex 1.1768743720954706 0.4543307086614181 0.0
    vertex 1.176874372095471 0.9629921259842522 4.440892098500626e-16
  endloop
endfacet
facet normal 0.0 0.0 -1.0
  outer loop
    vertex 1.1968544565963972 1.0112283169637468 4.440892098500626e-16
    vertex 1.1968544565963963 0.40609451768192173 0.0
    vertex 1.176874372095471 0.9629921259842522 4.440892098500626e-16
  endloop
endfacet
facet normal 0.0 0.0 -1.0
  outer loop
    vertex 1.2036692913385827 0.35433070866141847 0.0
    vertex 1.1968544565963963 0.40609451768192173 0.0
    vertex 1.1968544565963972 1.0112283169637468 4.440892098500626e-16
  endloop
endfacet
facet normal 0.0 0.0 -1.0
  outer loop
    vertex 1.2036692913385836 1.0629921259842519 4.440892098500626e-16
    vertex 1.2036692913385827 0.35433070866141847 0.0
    vertex 1.1968544565963972 1.0112283169637468 4.440892098500626e-16
  endloop
endfacet
facet normal -0.6087614290087334 0.7933533402912256 0.0
  outer loop
    vertex 1.1036692913385835 0.8897870452273633 0.2800000000000007
    vertex 1.145090647575893 0.9215707697469426 0.2800000000000007
    vertex 1.1036692913385835 0.8897870452273633 4.440892098500626e-16
  endloop
endfacet
facet normal -0.6087614290087334 0.7933533402912256 0.0
  outer loop
    vertex 1.145090647575893 0.9215707697469426 4.440892098500626e-16
    vertex 1.1036692913385835 0.8897870452273633 4.440892098500626e-16
    vertex 1.145090647575893 0.9215707697469426 0.2800000000000007
  endloop
endfacet
facet normal -0.7933533402912377 0.6087614290087173 0.0
  outer loop
    vertex 1.1450906475758922 0.21290935242410924 0.0
    vertex 1.1450906475758922 0.21290935242410924 0.28
    vertex 1.1768743720954702 0.2543307086614188 0.0
  endloop
endfacet
facet normal -0.7933533402912377 0.6087614290087173 0.0
  outer loop
    vertex 1.1768743720954702 0.2543307086614188 0.28
    vertex 1.1768743720954702 0.2543307086614188 0.0
    vertex 1.1450906475758922 0.21290935242410924 0.28
  endloop
endfacet
facet normal -0.9238795325112819 0.38268343236510166 0.0
  outer loop
    vertex 1.1768743720954702 0.2543307086614188 0.0
    vertex 1.1768743720954702 0.2543307086614188 0.28
    vertex 1.1968544565963963 0.30256689964091343 0.0
  endloop
endfacet
facet normal -0.9238795325112819 0.38268343236510166 0.0
  outer loop
    vertex 1.1968544565963963 0.30256689964091343 0.28
    vertex 1.1968544565963963 0.30256689964091343 0.0
    vertex 1.1768743720954702 0.2543307086614188 0.28
  endloop
endfacet
facet normal 0.7933533402912377 -0.6087614290087173 0.0
  outer loop
    vertex 0.8304642105816957 1.1629921259842515 0.2800000000000007
    vertex 0.8304642105816957 1.1629921259842515 4.440892098500626e-16
    vertex 0.8622479351012737 1.204413482221561 0.2800000000000007
  endloop
endfacet
facet normal 0.7933533402912377 -0.6087614290087173 0.0
  outer loop
    vertex 0.8622479351012737 1.204413482221561 4.440892098500626e-16
    vertex 0.8622479351012737 1.204413482221561 0.2800000000000007
    vertex 0.8304642105816957 1.1629921259842515 4.440892098500626e-16
  endloop
endfacet
facet normal 0.0 1.0 0.0
  outer loop
    vertex 0.0 1.4173228346456686 0.28000000000000114
    vertex 1.3579999999999997 1.4173228346456686 0.28000000000000114
    vertex 0.0 1.4173228346456686 8.881784197001252e-16
  endloop
endfacet
facet normal 0.0 1.0 0.0
  outer loop
    vertex 1.3579999999999997 1.4173228346456686 8.881784197001252e-16
    vertex 0.0 1.4173228346456686 8.881784197001252e-16
    vertex 1.3579999999999997 1.4173228346456686 0.28000000000000114
  endloop
endfacet
facet normal -0.9238795325112819 0.38268343236510166 0.0
  outer loop
    vertex 1.176874372095471 0.9629921259842522 4.440892098500626e-16
    vertex 1.176874372095471 0.9629921259842522 0.2800000000000007
    vertex 1.1968544565963972 1.0112283169637468 4.440892098500626e-16
  endloop
endfacet
facet normal -0.9238795325112819 0.38268343236510166 0.0
  outer loop
    vertex 1.1968544565963972 1.0112283169637468 0.2800000000000007
    vertex 1.1968544565963972 1.0112283169637468 4.440892098500626e-16
    vertex 1.176874372095471 0.9629921259842522 0.2800000000000007
  endloop
endfacet
facet normal -0.3826834323650854 0.9238795325112886 0.0
  outer loop
    vertex 1.0554331003590867 0.1611455434036042 0.28
    vertex 1.1036692913385826 0.1811256279045299 0.28
    vertex 1.0554331003590867 0.1611455434036042 0.0
  endloop
endfacet
facet normal -0.3826834323650854 0.9238795325112886 0.0
  outer loop
    vertex 1.1036692913385826 0.1811256279045299 0.0
    vertex 1.0554331003590867 0.1611455434036042 0.0
    vertex 1.1036692913385826 0.1811256279045299 0.28
  endloop
endfacet
facet normal -0.6087614290087334 0.7933533402912256 0.0
  outer loop
    vertex 1.1036692913385826 0.1811256279045299 0.28
    vertex 1.1450906475758922 0.21290935242410924 0.28
    vertex 1.1036692913385826 0.1811256279045299 0.0
  endloop
endfacet
facet normal -0.6087614290087334 0.7933533402912256 0.0
  outer loop
    vertex 1.1450906475758922 0.21290935242410924 0.0
    vertex 1.1036692913385826 0.1811256279045299 0.0
    vertex 1.1450906475758922 0.21290935242410924 0.28
  endloop
endfacet
facet normal 0.9238795325112819 -0.38268343236510166 0.0
  outer loop
    vertex 0.8104841260807696 1.114755935004757 0.2800000000000007
    vertex 0.8104841260807696 1.114755935004757 4.440892098500626e-16
    vertex 0.8304642105816957 1.1629921259842515 0.2800000000000007
  endloop
endfacet
facet normal 0.9238795325112819 -0.38268343236510166 0.0
  outer loop
    vertex 0.8304642105816957 1.1629921259842515 4.440892098500626e-16
    vertex 0.8304642105816957 1.1629921259842515 0.2800000000000007
    vertex 0.8104841260807696 1.114755935004757 4.440892098500626e-16
  endloop
endfacet
facet normal 0.3826834323650854 0.9238795325112886 0.0
  outer loop
    vertex 0.9036692913385833 0.8897870452273633 0.2800000000000007
    vertex 0.9519054823180793 0.8698069607264376 0.2800000000000007
    vertex 0.9036692913385833 0.8897870452273633 4.440892098500626e-16
  endloop
endfacet
facet normal 0.3826834323650854 0.9238795325112886 0.0
  outer loop
    vertex 0.9519054823180793 0.8698069607264376 4.440892098500626e-16
    vertex 0.9036692913385833 0.8897870452273633 4.440892098500626e-16
    vertex 0.9519054823180793 0.8698069607264376 0.2800000000000007
  endloop
endfacet
facet normal -0.9914448613738107 0.13052619222004974 0.0
  outer loop
    vertex 1.1968544565963963 0.30256689964091343 0.0
    vertex 1.1968544565963963 0.30256689964091343 0.28
    vertex 1.2036692913385827 0.35433070866141847 0.0
  endloop
endfacet
facet normal -0.9914448613738107 0.13052619222004974 0.0
  outer loop
    vertex 1.2036692913385827 0.35433070866141847 0.28
    vertex 1.2036692913385827 0.35433070866141847 0.0
    vertex 1.1968544565963963 0.30256689964091343 0.28
  endloop
endfacet
facet normal -0.9914448613738102 -0.13052619222005413 -0.0
  outer loop
    vertex 1.2036692913385827 0.35433070866141847 0.0
    vertex 1.2036692913385827 0.35433070866141847 0.28
    vertex 1.1968544565963963 0.40609451768192173 0.0
  endloop
endfacet
facet normal -0.9914448613738102 -0.13052619222005413 -0.0
  outer loop
    vertex 1.1968544565963963 0.40609451768192173 0.28
    vertex 1.1968544565963963 0.40609451768192173 0.0
    vertex 1.2036692913385827 0.35433070866141847 0.28
  endloop
endfacet
facet normal 0.1305261922200603 0.9914448613738093 0.0
  outer loop
    vertex 0.9519054823180793 0.8698069607264376 0.2800000000000007
    vertex 1.0036692913385834 0.8629921259842508 0.2800000000000007
    vertex 0.9519054823180793 0.8698069607264376 4.440892098500626e-16
  endloop
endfacet
facet normal 0.1305261922200603 0.9914448613738093 0.0
  outer loop
    vertex 1.0036692913385834 0.8629921259842508 4.440892098500626e-16
    vertex 0.9519054823180793 0.8698069607264376 4.440892098500626e-16
    vertex 1.0036692913385834 0.8629921259842508 0.2800000000000007
  endloop
endfacet
facet normal -1.0 0.0 0.0
  outer loop
    vertex 0.0 0.0 8.881784197001252e-16
    vertex 0.0 0.0 0.28000000000000114
    vertex 0.0 1.4173228346456686 8.881784197001252e-16
  endloop
endfacet
facet normal -1.0 0.0 0.0
  outer loop
    vertex 0.0 1.4173228346456686 0.28000000000000114
    vertex 0.0 1.4173228346456686 8.881784197001252e-16
    vertex 0.0 0.0 0.28000000000000114
  endloop
endfacet
facet normal -0.92387953251129 -0.38268343236508245 -0.0
  outer loop
    vertex 1.1968544565963963 0.40609451768192173 0.0
    vertex 1.1968544565963963 0.40609451768192173 0.28
    vertex 1.1768743720954706 0.4543307086614181 0.0
  endloop
endfacet
facet normal -0.92387953251129 -0.38268343236508245 -0.0
  outer loop
    vertex 1.1768743720954706 0.4543307086614181 0.28
    vertex 1.1768743720954706 0.4543307086614181 0.0
    vertex 1.1968544565963963 0.40609451768192173 0.28
  endloop
endfacet
facet normal -0.7933533402912337 -0.6087614290087228 -0.0
  outer loop
    vertex 1.1768743720954706 0.4543307086614181 0.0
    vertex 1.1768743720954706 0.4543307086614181 0.28
    vertex 1.1450906475758922 0.4957520648987277 0.0
  endloop
endfacet
facet normal -0.7933533402912337 -0.6087614290087228 -0.0
  outer loop
    vertex 1.1450906475758922 0.4957520648987277 0.28
    vertex 1.1450906475758922 0.4957520648987277 0.0
    vertex 1.1768743720954706 0.4543307086614181 0.28
  endloop
endfacet
facet normal 0.7933533402912377 -0.6087614290087173 0.0
  outer loop
    vertex 0.8304642105816948 0.4543307086614181 0.28
    vertex 0.8304642105816948 0.4543307086614181 0.0
    vertex 0.8622479351012728 0.4957520648987277 0.28
  endloop
endfacet
facet normal 0.7933533402912377 -0.6087614290087173 0.0
  outer loop
    vertex 0.8622479351012728 0.4957520648987277 0.0
    vertex 0.8622479351012728 0.4957520648987277 0.28
    vertex 0.8304642105816948 0.4543307086614181 0.0
  endloop
endfacet
facet normal 0.9238795325112819 -0.38268343236510166 0.0
  outer loop
    vertex 0.8104841260807687 0.4060945176819235 0.28
    vertex 0.8104841260807687 0.4060945176819235 0.0
    vertex 0.8304642105816948 0.4543307086614181 0.28
  endloop
endfacet
facet normal 0.9238795325112819 -0.38268343236510166 0.0
  outer loop
    vertex 0.8304642105816948 0.4543307086614181 0.0
    vertex 0.8304642105816948 0.4543307086614181 0.28
    vertex 0.8104841260807687 0.4060945176819235 0.0
  endloop
endfacet
facet normal 0.9914448613738107 0.13052619222004974 0.0
  outer loop
    vertex 0.8104841260807696 1.0112283169637468 0.2800000000000007
    vertex 0.8104841260807696 1.0112283169637468 4.440892098500626e-16
    vertex 0.8036692913385832 1.0629921259842519 0.2800000000000007
  endloop
endfacet
facet normal 0.9914448613738107 0.13052619222004974 0.0
  outer loop
    vertex 0.8036692913385832 1.0629921259842519 4.440892098500626e-16
    vertex 0.8036692913385832 1.0629921259842519 0.2800000000000007
    vertex 0.8104841260807696 1.0112283169637468 4.440892098500626e-16
  endloop
endfacet
facet normal -0.7933533402912377 0.6087614290087173 0.0
  outer loop
    vertex 1.145090647575893 0.9215707697469426 4.440892098500626e-16
    vertex 1.145090647575893 0.9215707697469426 0.2800000000000007
    vertex 1.176874372095471 0.9629921259842522 4.440892098500626e-16
  endloop
endfacet
facet normal -0.7933533402912377 0.6087614290087173 0.0
  outer loop
    vertex 1.176874372095471 0.9629921259842522 0.2800000000000007
    vertex 1.176874372095471 0.9629921259842522 4.440892098500626e-16
    vertex 1.145090647575893 0.9215707697469426 0.2800000000000007
  endloop
endfacet
facet normal 0.923879532511285 0.3826834323650945 0.0
  outer loop
    vertex 0.8304642105816953 0.9629921259842522 0.2800000000000007
    vertex 0.8304642105816953 0.9629921259842522 4.440892098500626e-16
    vertex 0.8104841260807696 1.0112283169637468 0.2800000000000007
  endloop
endfacet
facet normal 0.923879532511285 0.3826834323650945 0.0
  outer loop
    vertex 0.8104841260807696 1.0112283169637468 4.440892098500626e-16
    vertex 0.8104841260807696 1.0112283169637468 0.2800000000000007
    vertex 0.8304642105816953 0.9629921259842522 4.440892098500626e-16
  endloop
endfacet
facet normal -0.6087614290087334 -0.7933533402912256 -0.0
  outer loop
    vertex 1.1450906475758922 0.4957520648987277 0.28
    vertex 1.1036692913385826 0.527535789418307 0.28
    vertex 1.1450906475758922 0.4957520648987277 0.0
  endloop
endfacet
facet normal -0.6087614290087334 -0.7933533402912256 -0.0
  outer loop
    vertex 1.1036692913385826 0.527535789418307 0.0
    vertex 1.1450906475758922 0.4957520648987277 0.0
    vertex 1.1036692913385826 0.527535789418307 0.28
  endloop
endfacet
facet normal -0.3826834323650854 -0.9238795325112886 -0.0
  outer loop
    vertex 1.1036692913385826 0.527535789418307 0.28
    vertex 1.0554331003590867 0.5475158739192327 0.28
    vertex 1.1036692913385826 0.527535789418307 0.0
  endloop
endfacet
facet normal -0.3826834323650854 -0.9238795325112886 -0.0
  outer loop
    vertex 1.0554331003590867 0.5475158739192327 0.0
    vertex 1.1036692913385826 0.527535789418307 0.0
    vertex 1.0554331003590867 0.5475158739192327 0.28
  endloop
endfacet
facet normal 0.9914448613738107 -0.13052619222004974 0.0
  outer loop
    vertex 0.8036692913385823 0.35433070866141847 0.28
    vertex 0.8036692913385823 0.35433070866141847 0.0
    vertex 0.8104841260807687 0.4060945176819235 0.28
  endloop
endfacet
facet normal 0.9914448613738107 -0.13052619222004974 0.0
  outer loop
    vertex 0.8104841260807687 0.4060945176819235 0.0
    vertex 0.8104841260807687 0.4060945176819235 0.28
    vertex 0.8036692913385823 0.35433070866141847 0.0
  endloop
endfacet
facet normal 0.9914448613738107 0.13052619222004974 0.0
  outer loop
    vertex 0.8104841260807687 0.30256689964091343 0.28
    vertex 0.8104841260807687 0.30256689964091343 0.0
    vertex 0.8036692913385823 0.35433070866141847 0.28
  endloop
endfacet
facet normal 0.9914448613738107 0.13052619222004974 0.0
  outer loop
    vertex 0.8036692913385823 0.35433070866141847 0.0
    vertex 0.8036692913385823 0.35433070866141847 0.28
    vertex 0.8104841260807687 0.30256689964091343 0.0
  endloop
endfacet
facet normal 0.0 -1.0 0.0
  outer loop
    vertex 1.3579999999999997 0.0 0.28000000000000114
    vertex 0.0 0.0 0.28000000000000114
    vertex 1.3579999999999997 0.0 8.881784197001252e-16
  endloop
endfacet
facet normal 0.0 -1.0 0.0
  outer loop
    vertex 0.0 0.0 8.881784197001252e-16
    vertex 1.3579999999999997 0.0 8.881784197001252e-16
    vertex 0.0 0.0 0.28000000000000114
  endloop
endfacet
facet normal -0.1305261922200603 -0.9914448613738093 -0.0
  outer loop
    vertex 1.0554331003590867 0.5475158739192327 0.28
    vertex 1.0036692913385825 0.5543307086614195 0.28
    vertex 1.0554331003590867 0.5475158739192327 0.0
  endloop
endfacet
facet normal -0.1305261922200603 -0.9914448613738093 -0.0
  outer loop
    vertex 1.0036692913385825 0.5543307086614195 0.0
    vertex 1.0554331003590867 0.5475158739192327 0.0
    vertex 1.0036692913385825 0.5543307086614195 0.28
  endloop
endfacet
facet normal 0.1305261922200603 -0.9914448613738093 0.0
  outer loop
    vertex 1.0036692913385825 0.5543307086614195 0.28
    vertex 0.9519054823180784 0.5475158739192327 0.28
    vertex 1.0036692913385825 0.5543307086614195 0.0
  endloop
endfacet
facet normal 0.1305261922200603 -0.9914448613738093 0.0
  outer loop
    vertex 0.9519054823180784 0.5475158739192327 0.0
    vertex 1.0036692913385825 0.5543307086614195 0.0
    vertex 0.9519054823180784 0.5475158739192327 0.28
  endloop
endfacet
facet normal -0.1305261922200603 0.9914448613738093 0.0
  outer loop
    vertex 1.0036692913385834 0.8629921259842508 0.2800000000000007
    vertex 1.0554331003590876 0.8698069607264376 0.2800000000000007
    vertex 1.0036692913385834 0.8629921259842508 4.440892098500626e-16
  endloop
endfacet
facet normal -0.1305261922200603 0.9914448613738093 0.0
  outer loop
    vertex 1.0554331003590876 0.8698069607264376 4.440892098500626e-16
    vertex 1.0036692913385834 0.8629921259842508 4.440892098500626e-16
    vertex 1.0554331003590876 0.8698069607264376 0.2800000000000007
  endloop
endfacet
facet normal -0.6087614290087334 -0.7933533402912256 -0.0
  outer loop
    vertex 1.145090647575893 1.204413482221561 0.2800000000000007
    vertex 1.1036692913385835 1.2361972067411404 0.2800000000000007
    vertex 1.145090647575893 1.204413482221561 4.440892098500626e-16
  endloop
endfacet
facet normal -0.6087614290087334 -0.7933533402912256 -0.0
  outer loop
    vertex 1.1036692913385835 1.2361972067411404 4.440892098500626e-16
    vertex 1.145090647575893 1.204413482221561 4.440892098500626e-16
    vertex 1.1036692913385835 1.2361972067411404 0.2800000000000007
  endloop
endfacet
facet normal -0.1305261922200603 -0.9914448613738093 -0.0
  outer loop
    vertex 1.0554331003590876 1.2561772912420661 0.2800000000000007
    vertex 1.0036692913385834 1.262992125984253 0.2800000000000007
    vertex 1.0554331003590876 1.2561772912420661 4.440892098500626e-16
  endloop
endfacet
facet normal -0.1305261922200603 -0.9914448613738093 -0.0
  outer loop
    vertex 1.0036692913385834 1.262992125984253 4.440892098500626e-16
    vertex 1.0554331003590876 1.2561772912420661 4.440892098500626e-16
    vertex 1.0036692913385834 1.262992125984253 0.2800000000000007
  endloop
endfacet
facet normal 0.3826834323650854 -0.9238795325112886 0.0
  outer loop
    vertex 0.9519054823180793 1.2561772912420661 0.2800000000000007
    vertex 0.9036692913385833 1.2361972067411404 0.2800000000000007
    vertex 0.9519054823180793 1.2561772912420661 4.440892098500626e-16
  endloop
endfacet
facet normal 0.3826834323650854 -0.9238795325112886 0.0
  outer loop
    vertex 0.9036692913385833 1.2361972067411404 4.440892098500626e-16
    vertex 0.9519054823180793 1.2561772912420661 4.440892098500626e-16
    vertex 0.9036692913385833 1.2361972067411404 0.2800000000000007
  endloop
endfacet
facet normal 0.6087614290087334 -0.7933533402912256 0.0
  outer loop
    vertex 0.9036692913385833 1.2361972067411404 0.2800000000000007
    vertex 0.8622479351012737 1.204413482221561 0.2800000000000007
    vertex 0.9036692913385833 1.2361972067411404 4.440892098500626e-16
  endloop
endfacet
facet normal 0.6087614290087334 -0.7933533402912256 0.0
  outer loop
    vertex 0.8622479351012737 1.204413482221561 4.440892098500626e-16
    vertex 0.9036692913385833 1.2361972067411404 4.440892098500626e-16
    vertex 0.8622479351012737 1.204413482221561 0.2800000000000007
  endloop
endfacet
facet normal 1.0 0.0 0.0
  outer loop
    vertex 1.3579999999999997 0.0 0.28000000000000114
    vertex 1.3579999999999997 0.0 8.881784197001252e-16
    vertex 1.3579999999999997 1.4173228346456686 0.28000000000000114
  endloop
endfacet
facet normal 1.0 0.0 0.0
  outer loop
    vertex 1.3579999999999997 1.4173228346456686 8.881784197001252e-16
    vertex 1.3579999999999997 1.4173228346456686 0.28000000000000114
    vertex 1.3579999999999997 0.0 8.881784197001252e-16
  endloop
endfacet
facet normal 0.9914448613738107 -0.13052619222004974 0.0
  outer loop
    vertex 0.8036692913385832 1.0629921259842519 0.2800000000000007
    vertex 0.8036692913385832 1.0629921259842519 4.440892098500626e-16
    vertex 0.8104841260807696 1.114755935004757 0.2800000000000007
  endloop
endfacet
facet normal 0.9914448613738107 -0.13052619222004974 0.0
  outer loop
    vertex 0.8104841260807696 1.114755935004757 4.440892098500626e-16
    vertex 0.8104841260807696 1.114755935004757 0.2800000000000007
    vertex 0.8036692913385832 1.0629921259842519 4.440892098500626e-16
  endloop
endfacet
facet normal 0.6087614290087334 0.7933533402912256 0.0
  outer loop
    vertex 0.8622479351012728 0.21290935242410924 0.28
    vertex 0.9036692913385824 0.1811256279045299 0.28
    vertex 0.8622479351012728 0.21290935242410924 0.0
  endloop
endfacet
facet normal 0.6087614290087334 0.7933533402912256 0.0
  outer loop
    vertex 0.9036692913385824 0.1811256279045299 0.0
    vertex 0.8622479351012728 0.21290935242410924 0.0
    vertex 0.9036692913385824 0.1811256279045299 0.28
  endloop
endfacet
facet normal 0.3826834323650854 0.9238795325112886 0.0
  outer loop
    vertex 0.9036692913385824 0.1811256279045299 0.28
    vertex 0.9519054823180784 0.1611455434036042 0.28
    vertex 0.9036692913385824 0.1811256279045299 0.0
  endloop
endfacet
facet normal 0.3826834323650854 0.9238795325112886 0.0
  outer loop
    vertex 0.9519054823180784 0.1611455434036042 0.0
    vertex 0.9036692913385824 0.1811256279045299 0.0
    vertex 0.9519054823180784 0.1611455434036042 0.28
  endloop
endfacet
facet normal -0.3826834323650854 -0.9238795325112886 -0.0
  outer loop
    vertex 1.1036692913385835 1.2361972067411404 0.2800000000000007
    vertex 1.0554331003590876 1.2561772912420661 0.2800000000000007
    vertex 1.1036692913385835 1.2361972067411404 4.440892098500626e-16
  endloop
endfacet
facet normal -0.3826834323650854 -0.9238795325112886 -0.0
  outer loop
    vertex 1.0554331003590876 1.2561772912420661 4.440892098500626e-16
    vertex 1.1036692913385835 1.2361972067411404 4.440892098500626e-16
    vertex 1.0554331003590876 1.2561772912420661 0.2800000000000007
  endloop
endfacet
facet normal -0.92387953251129 -0.38268343236508245 -0.0
  outer loop
    vertex 1.1968544565963972 1.1147559350047551 4.440892098500626e-16
    vertex 1.1968544565963972 1.1147559350047551 0.2800000000000007
    vertex 1.1768743720954715 1.1629921259842515 4.440892098500626e-16
  endloop
endfacet
facet normal -0.92387953251129 -0.38268343236508245 -0.0
  outer loop
    vertex 1.1768743720954715 1.1629921259842515 0.2800000000000007
    vertex 1.1768743720954715 1.1629921259842515 4.440892098500626e-16
    vertex 1.1968544565963972 1.1147559350047551 0.2800000000000007
  endloop
endfacet
facet normal 0.6087614290087334 0.7933533402912256 0.0
  outer loop
    vertex 0.8622479351012737 0.9215707697469426 0.2800000000000007
    vertex 0.9036692913385833 0.8897870452273633 0.2800000000000007
    vertex 0.8622479351012737 0.9215707697469426 4.440892098500626e-16
  endloop
endfacet
facet normal 0.6087614290087334 0.7933533402912256 0.0
  outer loop
    vertex 0.9036692913385833 0.8897870452273633 4.440892098500626e-16
    vertex 0.8622479351012737 0.9215707697469426 4.440892098500626e-16
    vertex 0.9036692913385833 0.8897870452273633 0.2800000000000007
  endloop
endfacet
facet normal 0.7933533402912337 0.6087614290087228 0.0
  outer loop
    vertex 0.8622479351012737 0.9215707697469426 0.2800000000000007
    vertex 0.8622479351012737 0.9215707697469426 4.440892098500626e-16
    vertex 0.8304642105816953 0.9629921259842522 0.2800000000000007
  endloop
endfacet
facet normal 0.7933533402912337 0.6087614290087228 0.0
  outer loop
    vertex 0.8304642105816953 0.9629921259842522 4.440892098500626e-16
    vertex 0.8304642105816953 0.9629921259842522 0.2800000000000007
    vertex 0.8622479351012737 0.9215707697469426 4.440892098500626e-16
  endloop
endfacet
facet normal -0.9914448613738107 0.13052619222004974 0.0
  outer loop
    vertex 1.1968544565963972 1.0112283169637468 4.440892098500626e-16
    vertex 1.1968544565963972 1.0112283169637468 0.2800000000000007
    vertex 1.2036692913385836 1.0629921259842519 4.440892098500626e-16
  endloop
endfacet
facet normal -0.9914448613738107 0.13052619222004974 0.0
  outer loop
    vertex 1.2036692913385836 1.0629921259842519 0.2800000000000007
    vertex 1.2036692913385836 1.0629921259842519 4.440892098500626e-16
    vertex 1.1968544565963972 1.0112283169637468 0.2800000000000007
  endloop
endfacet
facet normal 0.3826834323650854 -0.9238795325112886 0.0
  outer loop
    vertex 0.9519054823180784 0.5475158739192327 0.28
    vertex 0.9036692913385824 0.527535789418307 0.28
    vertex 0.9519054823180784 0.5475158739192327 0.0
  endloop
endfacet
facet normal 0.3826834323650854 -0.9238795325112886 0.0
  outer loop
    vertex 0.9036692913385824 0.527535789418307 0.0
    vertex 0.9519054823180784 0.5475158739192327 0.0
    vertex 0.9036692913385824 0.527535789418307 0.28
  endloop
endfacet
facet normal 0.6087614290087334 -0.7933533402912256 0.0
  outer loop
    vertex 0.9036692913385824 0.527535789418307 0.28
    vertex 0.8622479351012728 0.4957520648987277 0.28
    vertex 0.9036692913385824 0.527535789418307 0.0
  endloop
endfacet
facet normal 0.6087614290087334 -0.7933533402912256 0.0
  outer loop
    vertex 0.8622479351012728 0.4957520648987277 0.0
    vertex 0.9036692913385824 0.527535789418307 0.0
    vertex 0.8622479351012728 0.4957520648987277 0.28
  endloop
endfacet
endsolid 1.0_spacer
